<svg xmlns="http://www.w3.org/2000/svg" viewBox="0 0 18 18">
  <path d="M6.98180721,12.8264685 C7.00933732,12.8128168 7.04030453,12.80491 7.07307295,12.8043292 L7.08183601,12.8043292 C7.19627134,12.8063666 7.28905675,12.8985567 7.28905675,13.0126484 C7.28905675,13.1282681 7.19420945,13.2219863 7.07719674,13.2219863 C7.02999391,13.2219863 6.98639807,13.2067354 6.95118047,13.1809482 C6.98639269,13.206916 7.03008555,13.222241 7.07740293,13.222241 C7.19441564,13.222241 7.28926294,13.1285228 7.28926294,13.0129031 L7.28926294,14.1247876 C7.28926294,14.2490661 7.18719899,14.3494056 7.06142323,14.3494056 L6.40522425,14.3494056 C5.23251986,14.3494056 4.36549183,13.6271645 4.36549183,12.3003394 L4.36549183,7.70509332 C4.36549183,7.58132422 4.26342789,7.48047533 4.13765212,7.48047533 L3.22732423,7.48047533 C3.10154847,7.48047533 3,7.37962643 3,7.25585733 L3,6.26112051 C3,6.13684207 3.10154847,6.03599317 3.22732423,6.03599317 L4.13765212,6.03599317 C4.26342789,6.03599317 4.36549183,5.93514428 4.36549183,5.81137518 L4.36549183,3.72461799 C4.36549183,3.60033956 4.46755577,3.5 4.59281606,3.5 L5.82067621,3.5 C5.94645198,3.5 6.04851592,3.60033956 6.04851592,3.72461799 L6.04851592,5.81137518 C6.04851592,5.93514428 6.15006439,6.03599317 6.27584016,6.03599317 L7.06142323,6.03599317 C7.18719899,6.03599317 7.28926294,6.13684207 7.28926294,6.26112051 L7.28926294,7.25585733 C7.28926294,7.37962643 7.18719899,7.48047533 7.06142323,7.48047533 L6.27584016,7.48047533 C6.15006439,7.48047533 6.04851592,7.58132422 6.04851592,7.70509332 L6.04851592,11.9983021 C6.04851592,12.4516128 6.23511768,12.8040746 6.6603841,12.8040746 L7.07276366,12.8040746 C7.04005793,12.8047992 7.00918825,12.8127393 6.9817574,12.8263698 Z M11.1840845,11.8735143 L9.65364083,14.2337859 C9.60673265,14.3056026 9.52631864,14.3494056 9.4402344,14.3494056 L8.04896885,14.3494056 C7.84587192,14.3494056 7.72525089,14.125297 7.8381398,13.9587435 L10.3675729,10.2395585 C10.4253061,10.1550084 10.4253061,10.0444821 10.3680884,9.96044134 L7.95669892,6.40882848 C7.84381002,6.242275 7.96443104,6.01867569 8.16752798,6.01867569 L9.55621616,6.01867569 C9.64436229,6.01867569 9.72580725,6.06349742 9.77219995,6.13786074 L11.1820226,8.39422744 C11.2809937,8.55263151 11.5139881,8.55263151 11.6134747,8.39422744 L13.0227819,6.13786074 C13.0691746,6.06349742 13.1506195,6.01867569 13.2387657,6.01867569 L14.6274538,6.01867569 C14.8305508,6.01867569 14.9511718,6.242275 14.8382829,6.40882848 L12.4268934,9.96044134 C12.3696757,10.0444821 12.3696757,10.1550084 12.4274089,10.2395585 L14.9563265,13.9587435 C15.0697309,14.125297 14.9491099,14.3494056 14.746013,14.3494056 L13.3547474,14.3494056 C13.2686632,14.3494056 13.1882492,14.3056026 13.141341,14.2337859 L11.6108973,11.8735143 C11.5114108,11.7196943 11.2835711,11.7196943 11.1840845,11.8735143 Z"/>
</svg>
